<svg xmlns="http://www.w3.org/2000/svg" viewBox="0 0 500 500" width="500" height="500" preserveAspectRatio="xMidYMid meet" style="width: 100%; height: 100%; transform: translate3d(0px, 0px, 0px);"><defs><clipPath id="__lottie_element_2"><rect width="500" height="500" x="0" y="0"></rect></clipPath></defs><g clip-path="url(#__lottie_element_2)"><g transform="matrix(1,0,0,1,139.90199279785156,178.4929962158203)" opacity="1" style="display: block;"><g opacity="1" transform="matrix(1,0,0,1,0,0)"><path fill="rgb(80,110,224)" fill-opacity="1" d=" M53.4739990234375,69.84400177001953 C53.4739990234375,69.84400177001953 -53.4739990234375,69.84400177001953 -53.4739990234375,69.84400177001953 C-53.4739990234375,69.84400177001953 -53.4739990234375,-69.84400177001953 -53.4739990234375,-69.84400177001953 C-53.4739990234375,-69.84400177001953 53.4739990234375,-69.84400177001953 53.4739990234375,-69.84400177001953 C53.4739990234375,-69.84400177001953 53.4739990234375,69.84400177001953 53.4739990234375,69.84400177001953z"></path></g></g><g transform="matrix(1,0,0,1,230.1840057373047,127.78299713134766)" opacity="1" style="display: block;"><g opacity="1" transform="matrix(1,0,0,1,0,0)"><path fill="rgb(80,110,224)" fill-opacity="1" d=" M30.81800079345703,40.25199890136719 C30.81800079345703,40.25199890136719 -30.81800079345703,40.25199890136719 -30.81800079345703,40.25199890136719 C-30.81800079345703,40.25199890136719 -30.81800079345703,-40.25199890136719 -30.81800079345703,-40.25199890136719 C-30.81800079345703,-40.25199890136719 30.81800079345703,-40.25199890136719 30.81800079345703,-40.25199890136719 C30.81800079345703,-40.25199890136719 30.81800079345703,40.25199890136719 30.81800079345703,40.25199890136719z"></path></g></g><g transform="matrix(1,0,0,1,0,0)" opacity="1" style="display: block;"><g opacity="1" transform="matrix(1,0,0,1,371.1990051269531,93.85099792480469)"><path fill="rgb(80,110,224)" fill-opacity="1" d=" M71.3010025024414,3.9709999561309814 C71.3010025024414,3.9709999561309814 -71.3010025024414,3.9709999561309814 -71.3010025024414,3.9709999561309814 C-71.3010025024414,3.9709999561309814 -71.3010025024414,-3.9709999561309814 -71.3010025024414,-3.9709999561309814 C-71.3010025024414,-3.9709999561309814 71.3010025024414,-3.9709999561309814 71.3010025024414,-3.9709999561309814 C71.3010025024414,-3.9709999561309814 71.3010025024414,3.9709999561309814 71.3010025024414,3.9709999561309814z"></path></g><g opacity="1" transform="matrix(1,0,0,1,371.1990051269531,110.52200317382812)"><path fill="rgb(80,110,224)" fill-opacity="1" d=" M71.3010025024414,3.9709999561309814 C71.3010025024414,3.9709999561309814 -71.3010025024414,3.9709999561309814 -71.3010025024414,3.9709999561309814 C-71.3010025024414,3.9709999561309814 -71.3010025024414,-3.9709999561309814 -71.3010025024414,-3.9709999561309814 C-71.3010025024414,-3.9709999561309814 71.3010025024414,-3.9709999561309814 71.3010025024414,-3.9709999561309814 C71.3010025024414,-3.9709999561309814 71.3010025024414,3.9709999561309814 71.3010025024414,3.9709999561309814z"></path></g><g opacity="1" transform="matrix(1,0,0,1,371.1990051269531,127.19300079345703)"><path fill="rgb(80,110,224)" fill-opacity="1" d=" M71.3010025024414,3.9709999561309814 C71.3010025024414,3.9709999561309814 -71.3010025024414,3.9709999561309814 -71.3010025024414,3.9709999561309814 C-71.3010025024414,3.9709999561309814 -71.3010025024414,-3.9709999561309814 -71.3010025024414,-3.9709999561309814 C-71.3010025024414,-3.9709999561309814 71.3010025024414,-3.9709999561309814 71.3010025024414,-3.9709999561309814 C71.3010025024414,-3.9709999561309814 71.3010025024414,3.9709999561309814 71.3010025024414,3.9709999561309814z"></path></g><g opacity="1" transform="matrix(1,0,0,1,371.1990051269531,143.86399841308594)"><path fill="rgb(80,110,224)" fill-opacity="1" d=" M71.3010025024414,3.9709999561309814 C71.3010025024414,3.9709999561309814 -71.3010025024414,3.9709999561309814 -71.3010025024414,3.9709999561309814 C-71.3010025024414,3.9709999561309814 -71.3010025024414,-3.9709999561309814 -71.3010025024414,-3.9709999561309814 C-71.3010025024414,-3.9709999561309814 71.3010025024414,-3.9709999561309814 71.3010025024414,-3.9709999561309814 C71.3010025024414,-3.9709999561309814 71.3010025024414,3.9709999561309814 71.3010025024414,3.9709999561309814z"></path></g><g opacity="1" transform="matrix(1,0,0,1,371.1990051269531,160.53500366210938)"><path fill="rgb(80,110,224)" fill-opacity="1" d=" M71.3010025024414,3.9709999561309814 C71.3010025024414,3.9709999561309814 -71.3010025024414,3.9709999561309814 -71.3010025024414,3.9709999561309814 C-71.3010025024414,3.9709999561309814 -71.3010025024414,-3.9709999561309814 -71.3010025024414,-3.9709999561309814 C-71.3010025024414,-3.9709999561309814 71.3010025024414,-3.9709999561309814 71.3010025024414,-3.9709999561309814 C71.3010025024414,-3.9709999561309814 71.3010025024414,3.9709999561309814 71.3010025024414,3.9709999561309814z"></path></g><g opacity="1" transform="matrix(1,0,0,1,371.1990051269531,177.20599365234375)"><path fill="rgb(80,110,224)" fill-opacity="1" d=" M71.3010025024414,3.9709999561309814 C71.3010025024414,3.9709999561309814 -71.3010025024414,3.9709999561309814 -71.3010025024414,3.9709999561309814 C-71.3010025024414,3.9709999561309814 -71.3010025024414,-3.9709999561309814 -71.3010025024414,-3.9709999561309814 C-71.3010025024414,-3.9709999561309814 71.3010025024414,-3.9709999561309814 71.3010025024414,-3.9709999561309814 C71.3010025024414,-3.9709999561309814 71.3010025024414,3.9709999561309814 71.3010025024414,3.9709999561309814z"></path></g><g opacity="1" transform="matrix(1,0,0,1,371.1990051269531,193.8769989013672)"><path fill="rgb(80,110,224)" fill-opacity="1" d=" M71.3010025024414,3.9709999561309814 C71.3010025024414,3.9709999561309814 -71.3010025024414,3.9709999561309814 -71.3010025024414,3.9709999561309814 C-71.3010025024414,3.9709999561309814 -71.3010025024414,-3.9709999561309814 -71.3010025024414,-3.9709999561309814 C-71.3010025024414,-3.9709999561309814 71.3010025024414,-3.9709999561309814 71.3010025024414,-3.9709999561309814 C71.3010025024414,-3.9709999561309814 71.3010025024414,3.9709999561309814 71.3010025024414,3.9709999561309814z"></path></g><g opacity="1" transform="matrix(1,0,0,1,371.1990051269531,210.5489959716797)"><path fill="rgb(80,110,224)" fill-opacity="1" d=" M71.3010025024414,3.9709999561309814 C71.3010025024414,3.9709999561309814 -71.3010025024414,3.9709999561309814 -71.3010025024414,3.9709999561309814 C-71.3010025024414,3.9709999561309814 -71.3010025024414,-3.9709999561309814 -71.3010025024414,-3.9709999561309814 C-71.3010025024414,-3.9709999561309814 71.3010025024414,-3.9709999561309814 71.3010025024414,-3.9709999561309814 C71.3010025024414,-3.9709999561309814 71.3010025024414,3.9709999561309814 71.3010025024414,3.9709999561309814z"></path></g><g opacity="1" transform="matrix(1,0,0,1,371.1990051269531,227.22000122070312)"><path fill="rgb(80,110,224)" fill-opacity="1" d=" M71.3010025024414,3.9709999561309814 C71.3010025024414,3.9709999561309814 -71.3010025024414,3.9709999561309814 -71.3010025024414,3.9709999561309814 C-71.3010025024414,3.9709999561309814 -71.3010025024414,-3.9709999561309814 -71.3010025024414,-3.9709999561309814 C-71.3010025024414,-3.9709999561309814 71.3010025024414,-3.9709999561309814 71.3010025024414,-3.9709999561309814 C71.3010025024414,-3.9709999561309814 71.3010025024414,3.9709999561309814 71.3010025024414,3.9709999561309814z"></path></g><g opacity="1" transform="matrix(1,0,0,1,371.1990051269531,243.89100646972656)"><path fill="rgb(80,110,224)" fill-opacity="1" d=" M71.3010025024414,3.9709999561309814 C71.3010025024414,3.9709999561309814 -71.3010025024414,3.9709999561309814 -71.3010025024414,3.9709999561309814 C-71.3010025024414,3.9709999561309814 -71.3010025024414,-3.9709999561309814 -71.3010025024414,-3.9709999561309814 C-71.3010025024414,-3.9709999561309814 71.3010025024414,-3.9709999561309814 71.3010025024414,-3.9709999561309814 C71.3010025024414,-3.9709999561309814 71.3010025024414,3.9709999561309814 71.3010025024414,3.9709999561309814z"></path></g><g opacity="1" transform="matrix(1,0,0,1,371.1990051269531,261.8529968261719)"><path fill="rgb(80,110,224)" fill-opacity="1" d=" M71.3010025024414,3.9709999561309814 C71.3010025024414,3.9709999561309814 -71.3010025024414,3.9709999561309814 -71.3010025024414,3.9709999561309814 C-71.3010025024414,3.9709999561309814 -71.3010025024414,-3.9709999561309814 -71.3010025024414,-3.9709999561309814 C-71.3010025024414,-3.9709999561309814 71.3010025024414,-3.9709999561309814 71.3010025024414,-3.9709999561309814 C71.3010025024414,-3.9709999561309814 71.3010025024414,3.9709999561309814 71.3010025024414,3.9709999561309814z"></path></g><g opacity="1" transform="matrix(1,0,0,1,371.1990051269531,279.81500244140625)"><path fill="rgb(80,110,224)" fill-opacity="1" d=" M71.3010025024414,3.9709999561309814 C71.3010025024414,3.9709999561309814 -71.3010025024414,3.9709999561309814 -71.3010025024414,3.9709999561309814 C-71.3010025024414,3.9709999561309814 -71.3010025024414,-3.9709999561309814 -71.3010025024414,-3.9709999561309814 C-71.3010025024414,-3.9709999561309814 71.3010025024414,-3.9709999561309814 71.3010025024414,-3.9709999561309814 C71.3010025024414,-3.9709999561309814 71.3010025024414,3.9709999561309814 71.3010025024414,3.9709999561309814z"></path></g><g opacity="1" transform="matrix(1,0,0,1,371.1990051269531,297.77801513671875)"><path fill="rgb(80,110,224)" fill-opacity="1" d=" M71.3010025024414,3.9709999561309814 C71.3010025024414,3.9709999561309814 -71.3010025024414,3.9709999561309814 -71.3010025024414,3.9709999561309814 C-71.3010025024414,3.9709999561309814 -71.3010025024414,-3.9709999561309814 -71.3010025024414,-3.9709999561309814 C-71.3010025024414,-3.9709999561309814 71.3010025024414,-3.9709999561309814 71.3010025024414,-3.9709999561309814 C71.3010025024414,-3.9709999561309814 71.3010025024414,3.9709999561309814 71.3010025024414,3.9709999561309814z"></path></g></g><g transform="matrix(1,0,0,1,0,0)" opacity="1" style="display: block;"><g opacity="1" transform="matrix(1,0,0,1,246.5070037841797,322.8659973144531)"><path fill="rgb(49,51,132)" fill-opacity="1" d=" M90.50700378417969,-29.05900001525879 C86.85099792480469,-64.4739990234375 68.50700378417969,-79.13400268554688 0,-79.13400268554688 C-68.50700378417969,-79.13400268554688 -86.85099792480469,-64.4739990234375 -90.50700378417969,-29.05900001525879 C-94.16300201416016,6.355999946594238 -93.00700378417969,79.13400268554688 -93.00700378417969,79.13400268554688 C-93.00700378417969,79.13400268554688 0,79.13400268554688 0,79.13400268554688 C0,79.13400268554688 93.00700378417969,79.13400268554688 93.00700378417969,79.13400268554688 C93.00700378417969,79.13400268554688 94.16300201416016,6.355999946594238 90.50700378417969,-29.05900001525879z"></path></g><g opacity="1" transform="matrix(1,0,0,1,0,0)"><g opacity="1" transform="matrix(1,0,0,1,328.0119934082031,327.0610046386719)"><path fill="rgb(67,79,218)" fill-opacity="1" d=" M-6.067999839782715,-44.51900100708008 C-6.833000183105469,-17.589000701904297 -8.470000267028809,39.61600112915039 -8.708000183105469,44.51900100708008 C-1.6890000104904175,43.31999969482422 3.6489999294281006,41.95600128173828 8.708000183105469,40.12099838256836 C4.824999809265137,20.089000701904297 -1.694000005722046,0.6420000195503235 -3.7279999256134033,-19.700000762939453 C-5.052000045776367,-28.30900001525879 -5.098999977111816,-36.48899841308594 -6.067999839782715,-44.51900100708008z"></path></g><g opacity="1" transform="matrix(1,0,0,1,338.6759948730469,317.9309997558594)"><path fill="rgb(74,96,222)" fill-opacity="1" d=" M-16.34000015258789,-49.250999450683594 C-16.34000015258789,-49.250999450683594 -16.493999481201172,-43.790000915527344 -16.732999801635742,-35.388999938964844 C-15.763999938964844,-27.358999252319336 -15.715999603271484,-19.17799949645996 -14.392000198364258,-10.569000244140625 C-12.357999801635742,9.77299976348877 -5.840000152587891,29.2189998626709 -1.9570000171661377,49.250999450683594 C3.921999931335449,47.11899948120117 9.423999786376953,44.3489990234375 16.732999801635742,40.430999755859375 C5.270999908447266,0.11500000208616257 -0.29600000381469727,-27.570999145507812 -16.34000015258789,-49.250999450683594z"></path></g><g opacity="1" transform="matrix(1,0,0,1,0,0)"><g opacity="1" transform="matrix(1,0,0,1,162.72300720214844,318.2820129394531)"><path fill="rgb(67,79,218)" fill-opacity="1" d=" M18.05500030517578,54.0099983215332 C17.704999923706055,53.95000076293945 17.354999542236328,53.880001068115234 17.014999389648438,53.81999969482422 C17.014999389648438,53.81999969482422 16.655000686645508,53.75 16.655000686645508,53.75 C16.655000686645508,53.75 14.395000457763672,53.29999923706055 14.395000457763672,53.29999923706055 C3.2950000762939453,51.0099983215332 -3.5950000286102295,48.04999923706055 -13.364999771118164,42.720001220703125 C-14.854999542236328,41.900001525878906 -16.405000686645508,41.040000915527344 -18.05500030517578,40.11000061035156 C-6.625,-2.2100000381469727 -1.0750000476837158,-31.260000228881836 14.954999923706055,-54.0099983215332 C14.954999923706055,-54.0099983215332 17.7450008392334,47.25 18.05500030517578,54.0099983215332z"></path></g><g opacity="1" transform="matrix(1,0,0,1,248.67799377441406,234.78399658203125)"><path fill="rgb(35,37,102)" fill-opacity="1" d=" M-23.40399932861328,-13.829000473022461 C-14.326000213623047,-18.743999481201172 20.038000106811523,-21.465999603271484 23.225000381469727,-13.829000473022461 C26.41200065612793,-6.191999912261963 23.2450008392334,3.546999931335449 20.089000701904297,5.853000164031982 C16.933000564575195,8.159000396728516 -0.09000000357627869,18.59000015258789 -0.09000000357627869,18.59000015258789 C-0.09000000357627869,18.59000015258789 -19.56800079345703,12.770000457763672 -21.94300079345703,4.059000015258789 C-24.31800079345703,-4.6519999504089355 -25.634000778198242,-10.706000328063965 -23.40399932861328,-13.829000473022461z"></path></g><g opacity="1" transform="matrix(1,0,0,1,0,0)"><g opacity="1" transform="matrix(1,0,0,1,248.32000732421875,339.2300109863281)"><path fill="rgb(74,96,222)" fill-opacity="1" d=" M80.78099822998047,86.87200164794922 C80.48400115966797,87.73300170898438 79.76599884033203,88.44999694824219 79.06900024414062,89.11599731445312 C74.06800079345703,93.88200378417969 68.26699829101562,97.36699676513672 61.95399856567383,99.93900299072266 C42.861000061035156,107.72799682617188 19.0939998626709,107.16400146484375 -1.1670000553131104,108.16799926757812 C-13.54699993133545,108.79299926757812 -25.250999450683594,108.12799835205078 -36.38100051879883,106.20099639892578 C-45.46099853515625,104.65299987792969 -54.1619987487793,102.24400329589844 -62.555999755859375,99.01599884033203 C-67.75199890136719,97.01699829101562 -72.83499908447266,94.7020034790039 -77.81600189208984,92.06800079345703 C-79.43499755859375,91.20700073242188 -80.3479995727539,89.3010025024414 -80.77799987792969,87.5999984741211 C-81.32099914550781,85.47799682617188 -80.44999694824219,83.32599639892578 -79.66100311279297,81.28600311279297 C-70.40699768066406,57.24300003051758 -71.54399871826172,30.073999404907227 -72.82499694824219,2.7309999465942383 C-73.49099731445312,-11.503999710083008 -74.1780014038086,-25.9950008392334 -74.875,-40.733001708984375 C-75.2750015258789,-49.178001403808594 -76.63700103759766,-63.5260009765625 -72.927001953125,-71.65299987792969 C-70.16000366210938,-77.7300033569336 -48.66899871826172,-96.18800354003906 -30.375,-103.51599884033203 C-23.31399917602539,-106.33399963378906 -20.136999130249023,-107.06199645996094 -12.522000312805176,-107.7490005493164 C-8.156000137329102,-108.15899658203125 -3.8519999980926514,-108.38400268554688 0.3089999854564667,-108.39399719238281 C1.4570000171661377,-108.40399932861328 2.634999990463257,-108.36299896240234 3.813999891281128,-108.28099822998047 C5.258999824523926,-108.18900299072266 6.714000225067139,-108.03600311279297 8.1899995803833,-107.83100128173828 C10.475000381469727,-107.52400207519531 12.772000312805176,-107.06199645996094 15.097999572753906,-106.51899719238281 C20.017000198364258,-105.33000183105469 24.98699951171875,-103.64900207519531 29.834999084472656,-101.62999725341797 C51.356998443603516,-92.7239990234375 70.79900360107422,-77.34100341796875 74.01699829101562,-70.55599975585938 C74.4469985961914,-69.63400268554688 74.7239990234375,-66.9800033569336 74.81600189208984,-62.89099884033203 C75.08200073242188,-53.974998474121094 74.63099670410156,-38.4379997253418 73.84200286865234,-19.93899917602539 C73.28900146484375,-7.2820000648498535 72.54100036621094,6.757999897003174 71.76200103759766,20.922000885009766 C70.59400177001953,42.084999084472656 73.93499755859375,64.6729965209961 80.4020004272461,83.41799926757812 C80.78099822998047,84.5250015258789 81.18099975585938,85.7239990234375 80.78099822998047,86.87200164794922z"></path></g><g opacity="1" transform="matrix(1,0,0,1,209.7530059814453,338.1319885253906)"><path fill="rgb(67,79,218)" fill-opacity="1" d=" M42.380001068115234,-107.18399810791016 C42.380001068115234,-107.18399810791016 37.388999938964844,-91.43199920654297 37.388999938964844,-91.43199920654297 C37.388999938964844,-91.43199920654297 4.584000110626221,-61.20899963378906 1.6119999885559082,-42.05400085449219 C-0.7139999866485596,-27.049999237060547 1.2330000400543213,67.19499969482422 2.186000108718872,107.2979965209961 C-6.894000053405762,105.75 -15.595000267028809,103.34200286865234 -23.98900032043457,100.11399841308594 C-29.184999465942383,98.11499786376953 -34.268001556396484,95.80000305175781 -39.249000549316406,93.16600036621094 C-40.86800003051758,92.30500030517578 -41.78099822998047,90.39800262451172 -42.21099853515625,88.6969985961914 C-42.75400161743164,86.57499694824219 -41.882999420166016,84.42400360107422 -41.09400177001953,82.38400268554688 C-31.84000015258789,58.340999603271484 -32.97700119018555,31.172000885009766 -34.257999420166016,3.8289999961853027 C-34.92399978637695,-10.406000137329102 -35.611000061035156,-24.898000717163086 -36.30799865722656,-39.63600158691406 C-36.70800018310547,-48.08100128173828 -38.07099914550781,-62.428001403808594 -34.361000061035156,-70.55500030517578 C-31.5939998626709,-76.63200378417969 -10.102999687194824,-95.08999633789062 8.190999984741211,-102.41799926757812 C15.251999855041504,-105.23600006103516 18.429000854492188,-105.96399688720703 26.04400062561035,-106.6510009765625 C30.40999984741211,-107.06099700927734 34.7140007019043,-107.28700256347656 38.875,-107.2969970703125 C40.02299880981445,-107.30699920654297 41.20100021362305,-107.26599884033203 42.380001068115234,-107.18399810791016z"></path></g><g opacity="1" transform="matrix(1,0,0,1,248.14700317382812,225.31500244140625)"><path fill="rgb(255,187,204)" fill-opacity="1" d=" M22.485000610351562,8.557999610900879 C15.803000450134277,16.899999618530273 8.24899959564209,23.23900032043457 0.4410000145435333,28.06100082397461 C-10.125,21.74799919128418 -18.518999099731445,12.267999649047852 -22.485000610351562,7.296999931335449 C-21.788000106811523,7.0920000076293945 -21.121999740600586,6.9079999923706055 -20.45599937438965,6.74399995803833 C-20.45599937438965,6.74399995803833 -20.91699981689453,-27.496999740600586 -20.91699981689453,-27.496999740600586 C-20.91699981689453,-27.496999740600586 20.209999084472656,-28.06100082397461 20.209999084472656,-28.06100082397461 C20.209999084472656,-28.06100082397461 20.6200008392334,1.7630000114440918 20.6200008392334,1.7630000114440918 C20.6200008392334,1.7630000114440918 20.70199966430664,7.984000205993652 20.70199966430664,7.984000205993652 C21.29599952697754,8.168000221252441 21.891000747680664,8.352999687194824 22.485000610351562,8.557999610900879z"></path></g><g opacity="1" transform="matrix(1,0,0,1,247.1479949951172,221.52499389648438)"><path fill="rgb(226,160,184)" fill-opacity="1" d=" M21.486000061035156,-4.11899995803833 C21.486000061035156,-4.11899995803833 21.208999633789062,-24.270999908447266 21.208999633789062,-24.270999908447266 C21.208999633789062,-24.270999908447266 -19.917999267578125,-23.707000732421875 -19.917999267578125,-23.707000732421875 C-19.917999267578125,-23.707000732421875 -19.457000732421875,10.532999992370605 -19.457000732421875,10.532999992370605 C-20.12299919128418,10.696999549865723 -20.798999786376953,10.881999969482422 -21.486000061035156,11.086999893188477 C-18.930999755859375,14.291999816894531 -14.522000312805176,19.375999450683594 -8.883000373840332,24.270999908447266 C1.5010000467300415,15.031000137329102 10.482999801635742,4.099999904632568 21.486000061035156,-4.11899995803833z"></path></g></g><g opacity="1" transform="matrix(1,0,0,1,0,0)"><g opacity="1" transform="matrix(1,0,0,1,0,0)"><g opacity="1" transform="matrix(1,0,0,1,211.36399841308594,183.46400451660156)"><path fill="rgb(226,160,184)" fill-opacity="1" d=" M3.006999969482422,-9.727999687194824 C-5.171999931335449,-9.970000267028809 -6.571000099182129,-2.8510000705718994 -5.769999980926514,1.062000036239624 C-4.96999979019165,4.974999904632568 0,13.130000114440918 5.9120001792907715,8.190999984741211 C6.435999870300293,-8.258999824523926 3.006999969482422,-9.727999687194824 3.006999969482422,-9.727999687194824z"></path></g><g opacity="1" transform="matrix(1,0,0,1,284.99700927734375,182.52699279785156)"><path fill="rgb(255,187,204)" fill-opacity="1" d=" M-3.309999942779541,-9.706000328063965 C4.860000133514404,-10.170000076293945 6.449999809265137,-3.0910000801086426 5.75600004196167,0.8420000076293945 C5.061999797821045,4.775000095367432 0.31700000166893005,13.060999870300293 -5.7270002365112305,8.28499984741211 C-6.697999954223633,-8.145000457763672 -3.309999942779541,-9.706000328063965 -3.309999942779541,-9.706000328063965z"></path></g></g><g opacity="1" transform="matrix(1,0,0,1,248.0279998779297,175.96200561523438)"><path fill="rgb(255,187,204)" fill-opacity="1" d=" M35.077999114990234,-1.5980000495910645 C35.0880012512207,22.46500015258789 23.81800079345703,45.63800048828125 0.6629999876022339,45.946998596191406 C-2.244999885559082,45.992000579833984 -4.9629998207092285,45.659000396728516 -7.507999897003174,44.99399948120117 C-25.308000564575195,40.513999938964844 -34.520999908447266,20.3799991607666 -35.03900146484375,-0.656000018119812 C-35.513999938964844,-20.27400016784668 -31.645999908447266,-34.698001861572266 -19.597000122070312,-41.53300094604492 C-14.687000274658203,-44.316001892089844 -8.440999984741211,-45.84700012207031 -0.5950000286102295,-45.946998596191406 C26.617000579833984,-46.31800079345703 35.06700134277344,-24.464000701904297 35.077999114990234,-1.5980000495910645z"></path></g><g opacity="1" transform="matrix(1,0,0,1,246.9010009765625,147.9429931640625)"><path fill="rgb(49,51,132)" fill-opacity="1" d=" M37.41600036621094,15.201000213623047 C37.165000915527344,18.565000534057617 36.17499923706055,22.94700050354004 35.827999114990234,26.975000381469727 C35.641998291015625,29.091999053955078 35.625999450683594,31.101999282836914 35.9900016784668,32.82899856567383 C35.9900016784668,32.82899856567383 31.39900016784668,15.215999603271484 31.39900016784668,15.215999603271484 C31.39900016784668,15.215999603271484 27.038999557495117,13.003000259399414 26.0939998626709,9.88599967956543 C24.125999450683594,3.5460000038146973 22.98200035095215,-0.004000000189989805 22.937000274658203,0 C8.85200023651123,8.244000434875488 -22.781999588012695,1.375 -22.781999588012695,1.375 C-22.781999588012695,1.375 -23.891000747680664,8.612000465393066 -24.780000686645508,12.14900016784668 C-25.947999954223633,16.56999969482422 -30.246000289916992,17.917999267578125 -30.246000289916992,17.917999267578125 C-30.246000289916992,17.917999267578125 -33.54100036621094,33.762001037597656 -33.54100036621094,33.762001037597656 C-33.54100036621094,33.762001037597656 -39.11399841308594,6.199999809265137 -39.060001373291016,-3.625 C-39.03200149536133,-7.442999839782715 -37.7140007019043,-10.975000381469727 -33.66899871826172,-12.142000198364258 C-33.66899871826172,-12.142000198364258 -33.69300079345703,-12.161999702453613 -33.72200012207031,-12.22700023651123 C-35.4370002746582,-15.36299991607666 -32.742000579833984,-19.13599967956543 -29.951000213623047,-21.405000686645508 C-19.608999252319336,-29.841999053955078 -5.8460001945495605,-33.06700134277344 7.50600004196167,-33.68000030517578 C11.956000328063965,-33.891998291015625 16.569000244140625,-33.80400085449219 20.621000289916992,-31.992000579833984 C24.674999237060547,-30.158000946044922 28.048999786376953,-26.160999298095703 27.89900016784668,-21.722000122070312 C32.36600112915039,-21.7549991607666 36.2130012512207,-18.027999877929688 37.69200134277344,-13.786999702453613 C40.612998962402344,-5.459000110626221 38.047000885009766,6.473999977111816 37.41600036621094,15.201000213623047z"></path></g><g opacity="1" transform="matrix(1,0,0,1,233.27200317382812,184.16200256347656)"><g opacity="1" transform="matrix(1,0,0,1,0,0)"><path fill="rgb(49,51,132)" fill-opacity="1" d=" M2.378000020980835,0.032999999821186066 C2.437999963760376,1.7920000553131104 1.4210000038146973,3.203000068664551 0.1080000028014183,3.184999942779541 C-1.2050000429153442,3.1670000553131104 -2.318000078201294,1.7259999513626099 -2.378000020980835,-0.032999999821186066 C-2.437999963760376,-1.7920000553131104 -1.4210000038146973,-3.203000068664551 -0.1080000028014183,-3.184999942779541 C1.2050000429153442,-3.1670000553131104 2.318000078201294,-1.7259999513626099 2.378000020980835,0.032999999821186066z"></path></g></g><g opacity="1" transform="matrix(1,0,0,1,261.00201416015625,183.46400451660156)"><g opacity="1" transform="matrix(1,0,0,1,0,0)"><path fill="rgb(49,51,132)" fill-opacity="1" d=" M2.3420000076293945,0.41200000047683716 C2.119999885559082,2.1579999923706055 0.8920000195503235,3.3889999389648438 -0.4020000100135803,3.1619999408721924 C-1.6959999799728394,2.934999942779541 -2.563999891281128,1.3339999914169312 -2.3420000076293945,-0.41200000047683716 C-2.119999885559082,-2.1579999923706055 -0.8920000195503235,-3.3889999389648438 0.4020000100135803,-3.1619999408721924 C1.6959999799728394,-2.934999942779541 2.563999891281128,-1.3339999914169312 2.3420000076293945,0.41200000047683716z"></path></g></g><g opacity="1" transform="matrix(1,0,0,1,231.51300048828125,170.0279998779297)"><path fill="rgb(49,51,132)" fill-opacity="1" d=" M-5.063000202178955,2.4230000972747803 C-2.1730000972747803,0.5820000171661377 0.9570000171661377,-0.9670000076293945 4.489999771118164,-0.6510000228881836 C6.991000175476074,-0.4269999861717224 5.288000106811523,-2.50600004196167 3.506999969482422,-2.5339999198913574 C0.4020000100135803,-2.5840001106262207 -2.7060000896453857,-1.4190000295639038 -5.013999938964844,0.6579999923706055 C-5.506999969482422,1.1019999980926514 -5.993000030517578,1.8259999752044678 -5.61299991607666,2.369999885559082 C-5.559000015258789,2.447000026702881 -5.485000133514404,2.515000104904175 -5.39300012588501,2.5320000648498535 C-5.276000022888184,2.552999973297119 -5.163000106811523,2.486999988555908 -5.063000202178955,2.4230000972747803z"></path></g><g opacity="1" transform="matrix(1,0,0,1,261.47100830078125,168.22999572753906)"><path fill="rgb(49,51,132)" fill-opacity="1" d=" M5.343999862670898,1.7350000143051147 C2.1630001068115234,0.460999995470047 -1.1979999542236328,-0.4830000102519989 -4.611999988555908,0.48100000619888306 C-7.0279998779296875,1.1640000343322754 -5.739999771118164,-1.1950000524520874 -3.994999885559082,-1.5520000457763672 C-0.953000009059906,-2.174999952316284 2.316999912261963,-1.6050000190734863 4.968999862670898,0.009999999776482582 C5.535999774932861,0.35499998927116394 6.146999835968018,0.9760000109672546 5.874000072479248,1.5809999704360962 C5.835999965667725,1.6660000085830688 5.776000022888184,1.7480000257492065 5.689000129699707,1.781000018119812 C5.578000068664551,1.8229999542236328 5.454999923706055,1.7790000438690186 5.343999862670898,1.7350000143051147z"></path></g></g><g opacity="1" transform="matrix(1,0,0,1,249.41700744628906,192.2550048828125)"><path fill="rgb(226,160,184)" fill-opacity="1" d=" M-0.753000020980835,8.08899974822998 C0.9509999752044678,8.138999938964844 2.890000104904175,7.505000114440918 3.5230000019073486,6.561999797821045 C4.498000144958496,5.109000205993652 3.315999984741211,2.117000102996826 2.9260001182556152,0.625 C2.308000087738037,-1.7400000095367432 1.5759999752044678,-4.076000213623047 0.7350000143051147,-6.370999813079834 C0.574999988079071,-6.807000160217285 0.4059999883174896,-7.250999927520752 0.09700000286102295,-7.5980000495910645 C-0.21199999749660492,-7.945000171661377 -0.6930000185966492,-8.177000045776367 -1.1430000066757202,-8.062999725341797 C-1.5529999732971191,-7.959000110626221 -1.843999981880188,-7.604000091552734 -2.0789999961853027,-7.252999782562256 C-3.065000057220459,-5.7820000648498535 -2.9779999256134033,-3.615000009536743 -3.186000108718872,-1.8980000019073486 C-3.450000047683716,0.2800000011920929 -3.680000066757202,2.4619998931884766 -3.877000093460083,4.646999835968018 C-4.072000026702881,6.816999912261963 -2.9630000591278076,8.02400016784668 -0.753000020980835,8.08899974822998z"></path></g><g opacity="1" transform="matrix(1,0,0,1,0,0)"><g opacity="1" transform="matrix(1,0,0,1,233.5659942626953,242.61500549316406)"><path fill="rgb(49,51,132)" fill-opacity="1" d=" M12.940999984741211,1.1169999837875366 C12.940999984741211,1.1169999837875366 4.659999847412109,21.655000686645508 4.659999847412109,21.655000686645508 C4.659999847412109,21.655000686645508 -11.991000175476074,0.6399999856948853 -12.741999626159668,-7.051000118255615 C-14.074000358581543,-20.70199966430664 -8.293999671936035,-21.655000686645508 -8.293999671936035,-21.655000686645508 C-8.447999954223633,-18.29400062561035 -7.321000099182129,-14.982999801635742 -5.10699987411499,-12.45199966430664 C-0.4230000078678131,-7.0920000076293945 6.925000190734863,-1.9470000267028809 9.527999877929688,-0.625 C12.940999984741211,1.1169999837875366 12.940999984741211,1.1169999837875366 12.940999984741211,1.1169999837875366z"></path></g><g opacity="1" transform="matrix(1,0,0,1,246.46099853515625,248.5540008544922)"><path fill="rgb(245,210,122)" fill-opacity="1" d=" M2.127000093460083,4.822000026702881 C2.127000093460083,4.822000026702881 -2.127000093460083,2.8440001010894775 -2.127000093460083,2.8440001010894775 C-2.127000093460083,2.8440001010894775 0.04600000008940697,-4.822000026702881 0.04600000008940697,-4.822000026702881 C0.04600000008940697,-4.822000026702881 2.127000093460083,4.822000026702881 2.127000093460083,4.822000026702881z"></path></g><g opacity="1" transform="matrix(1,0,0,1,250.71400451660156,248.5540008544922)"><path fill="rgb(245,210,122)" fill-opacity="1" d=" M2.127000093460083,2.8440001010894775 C2.127000093460083,2.8440001010894775 -2.127000093460083,4.822000026702881 -2.127000093460083,4.822000026702881 C-2.127000093460083,4.822000026702881 -0.035999998450279236,-4.822000026702881 -0.035999998450279236,-4.822000026702881 C-0.035999998450279236,-4.822000026702881 2.127000093460083,2.8440001010894775 2.127000093460083,2.8440001010894775z"></path></g></g><g opacity="1" transform="matrix(1,0,0,1,250.71400451660156,248.5540008544922)"><path fill="rgb(35,37,102)" fill-opacity="1" d=" M2.127000093460083,2.8440001010894775 C2.127000093460083,2.8440001010894775 -2.127000093460083,4.822000026702881 -2.127000093460083,4.822000026702881 C-2.127000093460083,4.822000026702881 -0.035999998450279236,-4.822000026702881 -0.035999998450279236,-4.822000026702881 C-0.035999998450279236,-4.822000026702881 2.127000093460083,2.8440001010894775 2.127000093460083,2.8440001010894775z"></path></g><g opacity="1" transform="matrix(1,0,0,1,263.18798828125,242.61500549316406)"><path fill="rgb(49,51,132)" fill-opacity="1" d=" M12.425000190734863,-7.829999923706055 C12.343000411987305,-7.051000118255615 12.1899995803833,-6.271999835968018 11.954000473022461,-5.513999938964844 C9.668999671936035,1.8650000095367432 -4.238999843597412,21.655000686645508 -4.238999843597412,21.655000686645508 C-4.238999843597412,21.655000686645508 -10.347000122070312,8.782999992370605 -10.347000122070312,8.782999992370605 C-10.347000122070312,8.782999992370605 -12.510000228881836,1.1169999837875366 -12.510000228881836,1.1169999837875366 C-12.510000228881836,1.1169999837875366 -12.508999824523926,1.1169999837875366 -9.107000350952148,-0.625 C-6.504000186920166,-1.9470000267028809 0.843999981880188,-7.0920000076293945 5.5279998779296875,-12.45199966430664 C7.742000102996826,-14.982999801635742 8.869000434875488,-18.29400062561035 8.71500015258789,-21.655000686645508 C8.71500015258789,-21.655000686645508 13.17300033569336,-14.614999771118164 12.425000190734863,-7.829999923706055z"></path></g><g opacity="1" transform="matrix(1,0,0,1,245.97900390625,248.5540008544922)"><path fill="rgb(35,37,102)" fill-opacity="1" d=" M2.6080000400543213,4.822000026702881 C2.6080000400543213,4.822000026702881 -2.6080000400543213,2.9560000896453857 -2.6080000400543213,2.9560000896453857 C-2.6080000400543213,2.9560000896453857 0.527999997138977,-4.822000026702881 0.527999997138977,-4.822000026702881 C0.527999997138977,-4.822000026702881 2.6080000400543213,4.822000026702881 2.6080000400543213,4.822000026702881z"></path></g><g opacity="1" transform="matrix(1,0,0,1,249.30099487304688,210.6529998779297)"><path fill="rgb(49,51,132)" fill-opacity="1" d=" M5.828000068664551,-1.9359999895095825 C6.0229997634887695,-2.0290000438690186 6.234000205993652,-2.127000093460083 6.446000099182129,-2.0850000381469727 C6.791999816894531,-2.0160000324249268 6.966000080108643,-1.5859999656677246 6.879000186920166,-1.24399995803833 C6.791999816894531,-0.9020000100135803 6.526000022888184,-0.6380000114440918 6.258999824523926,-0.40700000524520874 C2.691999912261963,2.684000015258789 -2.1429998874664307,2.877000093460083 -5.999000072479248,0.3630000054836273 C-6.535999774932861,0.013000000268220901 -7.117000102996826,-0.6100000143051147 -6.820000171661377,-1.1779999732971191 C-5.928999900817871,-1.6160000562667847 -4.876999855041504,-1.2480000257492065 -3.9240000247955322,-0.968999981880188 C-0.36800000071525574,0.07400000095367432 2.5420000553131104,-0.36399999260902405 5.828000068664551,-1.9359999895095825z"></path></g><g opacity="1" transform="matrix(1,0,0,1,180.44500732421875,379.552001953125)"><path fill="rgb(226,160,184)" fill-opacity="1" d=" M35.854000091552734,-0.23999999463558197 C35.854000091552734,-0.23999999463558197 35.854000091552734,18.549999237060547 35.854000091552734,18.549999237060547 C35.854000091552734,18.549999237060547 -11.906000137329102,18.549999237060547 -20.9060001373291,18.549999237060547 C-29.9060001373291,18.549999237060547 -36.65599822998047,12.5 -35.7760009765625,2 C-35.20600128173828,-4.829999923706055 -32.736000061035156,-13.390000343322754 -31.086000442504883,-18.549999237060547 C-21.31599998474121,-13.220000267028809 -14.425999641418457,-10.260000228881836 -3.3259999752044678,-7.96999979019165 C-2.5959999561309814,-7.809999942779541 -1.8359999656677246,-7.659999847412109 -1.065999984741211,-7.519999980926514 C-1.065999984741211,-7.519999980926514 -0.7059999704360962,-7.449999809265137 -0.7059999704360962,-7.449999809265137 C-0.7059999704360962,-7.449999809265137 35.854000091552734,-0.23999999463558197 35.854000091552734,-0.23999999463558197z"></path></g><g opacity="1" transform="matrix(1,0,0,1,319.3210144042969,379.552001953125)"><path fill="rgb(255,187,204)" fill-opacity="1" d=" M33.91699981689453,11.699999809265137 C31.386999130249023,16.1299991607666 26.597000122070312,18.549999237060547 20.906999588012695,18.549999237060547 C11.906999588012695,18.549999237060547 -35.85300064086914,18.549999237060547 -35.85300064086914,18.549999237060547 C-35.85300064086914,18.549999237060547 -35.85300064086914,-0.23999999463558197 -35.85300064086914,-0.23999999463558197 C-35.85300064086914,-0.23999999463558197 0.7070000171661377,-7.449999809265137 0.7070000171661377,-7.449999809265137 C0.7070000171661377,-7.449999809265137 1.0670000314712524,-7.519999980926514 1.0670000314712524,-7.519999980926514 C1.8370000123977661,-7.659999847412109 4.206999778747559,-8.739999771118164 4.936999797821045,-8.899999618530273 C16.03700065612793,-11.1899995803833 21.316999435424805,-13.220000267028809 31.086999893188477,-18.549999237060547 C32.73699951171875,-13.390000343322754 35.207000732421875,-4.829999923706055 35.777000427246094,2 C36.09700012207031,5.860000133514404 35.387001037597656,9.119999885559082 33.91699981689453,11.699999809265137z"></path></g><g opacity="1" transform="matrix(1,0,0,1,318.3529968261719,394.677001953125)"><path fill="rgb(226,160,184)" fill-opacity="1" d=" M34.8849983215332,-3.424999952316284 C32.35499954223633,1.0049999952316284 27.565000534057617,3.424999952316284 21.875,3.424999952316284 C12.875,3.424999952316284 -34.8849983215332,3.424999952316284 -34.8849983215332,3.424999952316284 C-34.8849983215332,3.424999952316284 -34.8849983215332,-3.2850000858306885 -34.8849983215332,-3.2850000858306885 C-18.5049991607666,-3.1050000190734863 13.895000457763672,-2.8450000286102295 34.8849983215332,-3.424999952316284z"></path></g><g opacity="1" transform="matrix(1,0,0,1,248.1060028076172,273.60198974609375)"><path fill="rgb(35,37,102)" fill-opacity="1" d=" M-4.735000133514404,-22.091999053955078 C-4.735000133514404,-22.091999053955078 -4.735000133514404,22.20400047302246 -4.735000133514404,22.20400047302246 C-4.735000133514404,22.20400047302246 4.735000133514404,22.20400047302246 4.735000133514404,22.20400047302246 C4.735000133514404,22.20400047302246 4.735000133514404,-22.20400047302246 4.735000133514404,-22.20400047302246 C4.735000133514404,-22.20400047302246 0.4819999933242798,-20.22599983215332 0.4819999933242798,-20.22599983215332 C0.4819999933242798,-20.22599983215332 -4.735000133514404,-22.091999053955078 -4.735000133514404,-22.091999053955078z"></path></g><g opacity="1" transform="matrix(1,0,0,1,248.32000732421875,262.6820068359375)"><path fill="rgb(74,96,222)" fill-opacity="1" d=" M2.375,0 C2.375,1.312000036239624 1.312000036239624,2.375 0,2.375 C-1.312000036239624,2.375 -2.375,1.312000036239624 -2.375,0 C-2.375,-1.312000036239624 -1.312000036239624,-2.375 0,-2.375 C1.312000036239624,-2.375 2.375,-1.312000036239624 2.375,0z"></path></g><g opacity="1" transform="matrix(1,0,0,1,248.32000732421875,281.6820068359375)"><path fill="rgb(74,96,222)" fill-opacity="1" d=" M2.375,0 C2.375,1.312000036239624 1.312000036239624,2.375 0,2.375 C-1.312000036239624,2.375 -2.375,1.312000036239624 -2.375,0 C-2.375,-1.312000036239624 -1.312000036239624,-2.375 0,-2.375 C1.312000036239624,-2.375 2.375,-1.312000036239624 2.375,0z"></path></g><g opacity="1" transform="matrix(1,0,0,1,209.85499572753906,185.52499389648438)"><path fill="rgb(49,51,132)" fill-opacity="1" d=" M2.3929998874664307,13.217000007629395 C0.16300000250339508,13.597000122070312 -6.447000026702881,5.9070000648498535 -6.447000026702881,-1.3630000352859497 C-6.447000026702881,-8.633000373840332 -5.316999912261963,-12.282999992370605 -3.256999969482422,-12.963000297546387 C-1.187000036239624,-13.642999649047852 2.3929998874664307,-13.20300006866455 2.3929998874664307,-9.562999725341797 C2.3929998874664307,-9.562999725341797 5.9730000495910645,8.147000312805176 6.39300012588501,9.506999969482422 C6.822999954223633,10.857000350952148 4.623000144958496,12.847000122070312 2.3929998874664307,13.217000007629395z"></path></g><g opacity="1" transform="matrix(1,0,0,1,286.37799072265625,183.87399291992188)"><path fill="rgb(49,51,132)" fill-opacity="1" d=" M-1.5700000524520874,13.357999801635742 C-1.7699999809265137,13.347999572753906 -1.9600000381469727,13.317999839782715 -2.1600000858306885,13.277999877929688 C-4.210000038146973,12.887999534606934 -6.170000076293945,11.29800033569336 -5.900000095367432,10.027999877929688 C-5.599999904632568,8.637999534606934 -3.680000066757202,-9.321999549865723 -3.680000066757202,-9.321999549865723 C-4.019999980926514,-12.942000389099121 -0.49000000953674316,-13.711999893188477 1.6200000047683716,-13.232000350952148 C1.9600000381469727,-13.152000427246094 2.2899999618530273,-12.991999626159668 2.5899999141693115,-12.741999626159668 C4.190000057220459,-11.501999855041504 5.309999942779541,-8.041999816894531 5.869999885559082,-1.9819999933242798 C6.550000190734863,5.257999897003174 0.6899999976158142,13.527999877929688 -1.5700000524520874,13.357999801635742z"></path></g><g opacity="1" transform="matrix(1,0,0,1,247.86500549316406,151.02499389648438)"><path stroke-linecap="butt" stroke-linejoin="miter" fill-opacity="0" stroke-miterlimit="10" stroke="rgb(204,204,204)" stroke-opacity="1" stroke-width="2" d=" M-38.111000061035156,25.7810001373291 C-38.111000061035156,14.496999740600586 -40.025001525878906,11.604999542236328 -40.025001525878906,3.75 C-40.025001525878906,-4.105000019073486 -33.6609992980957,-27.100000381469727 0.8140000104904175,-25.722000122070312 C35.28900146484375,-24.3439998626709 39.361000061035156,-4.723999977111816 39.92399978637695,2.7170000076293945 C40.48699951171875,10.157999992370605 38.51499938964844,24.937000274658203 38.51499938964844,24.937000274658203"></path></g><g opacity="1" transform="matrix(1,0,0,1,247.86500549316406,153.3820037841797)"><path stroke-linecap="butt" stroke-linejoin="miter" fill-opacity="0" stroke-miterlimit="10" stroke="rgb(204,204,204)" stroke-opacity="1" stroke-width="2" d=" M-38.111000061035156,23.424999237060547 C-38.111000061035156,13.189000129699707 -40.025001525878906,10.487000465393066 -40.025001525878906,3.361999988555908 C-40.025001525878906,-3.763000011444092 -33.6609992980957,-24.621000289916992 0.8140000104904175,-23.371000289916992 C35.28900146484375,-22.121000289916992 39.361000061035156,-4.324999809265137 39.92399978637695,2.424999952316284 C40.48699951171875,9.175000190734863 38.51499938964844,22.579999923706055 38.51499938964844,22.579999923706055"></path></g><g opacity="1" transform="matrix(1,0,0,1,288.260986328125,184.18299865722656)"><path fill="rgb(74,96,222)" fill-opacity="1" d=" M-3.4519999027252197,13.048999786376953 C-3.6519999504089355,13.038999557495117 -3.8420000076293945,13.008999824523926 -4.041999816894531,12.968999862670898 C-2.7820000648498535,8.069000244140625 -0.7319999933242798,-1.0709999799728394 0.7080000042915344,-13.050999641418457 C2.308000087738037,-11.810999870300293 3.427999973297119,-8.35099983215332 3.98799991607666,-2.2909998893737793 C4.668000221252441,4.948999881744385 -1.1920000314712524,13.218999862670898 -3.4519999027252197,13.048999786376953z"></path></g><g opacity="1" transform="matrix(1,0,0,1,207.8280029296875,185.6580047607422)"><path fill="rgb(74,96,222)" fill-opacity="1" d=" M4.420000076293945,13.083000183105469 C2.190000057220459,13.463000297546387 -4.420000076293945,5.7729997634887695 -4.420000076293945,-1.496999979019165 C-4.420000076293945,-8.767000198364258 -3.2899999618530273,-12.416999816894531 -1.2300000190734863,-13.097000122070312 C-1.2300000190734863,-13.097000122070312 1.6299999952316284,6.7129998207092285 4.420000076293945,13.083000183105469z"></path></g><g opacity="1" transform="matrix(1,0,0,1,0,0)"><g opacity="1" transform="matrix(1,0,0,1,274.26800537109375,207.51600646972656)"><path fill="rgb(49,51,132)" fill-opacity="1" d=" M12.630999565124512,-18.26799964904785 C12.630999565124512,-18.26799964904785 12.619000434875488,-18.19099998474121 12.619000434875488,-18.19099998474121 C12.484999656677246,-17.3439998626709 11.163999557495117,-9.687999725341797 7.10699987411499,-1.784999966621399 C5.079999923706055,2.1670000553131104 2.372999906539917,6.177999973297119 -1.1820000410079956,9.446000099182129 C-4.741000175476074,12.71500015258789 -9.131999969482422,15.24899959564209 -14.609000205993652,16.304000854492188 C-14.609000205993652,16.304000854492188 -14.232000350952148,18.26799964904785 -14.232000350952148,18.26799964904785 C-8.168000221252441,17.104000091552734 -3.302999973297119,14.217000007629395 0.5350000262260437,10.579000473022461 C6.295000076293945,5.117000102996826 9.788000106811523,-2.009999990463257 11.868000030517578,-7.767000198364258 C13.944999694824219,-13.526000022888184 14.60200023651123,-17.929000854492188 14.609000205993652,-17.974000930786133 C14.609000205993652,-17.974000930786133 12.630999565124512,-18.26799964904785 12.630999565124512,-18.26799964904785 C12.630999565124512,-18.26799964904785 12.630999565124512,-18.26799964904785 12.630999565124512,-18.26799964904785z"></path></g><g opacity="1" transform="matrix(1,0,0,1,260.1199951171875,224.61000061035156)"><path fill="rgb(49,51,132)" fill-opacity="1" d=" M1.5880000591278076,2.499000072479248 C1.5880000591278076,2.499000072479248 -0.8309999704360962,2.8410000801086426 -0.8309999704360962,2.8410000801086426 C-2.305999994277954,3.049999952316284 -3.6689999103546143,2.0250000953674316 -3.878999948501587,0.550000011920929 C-4.0879998207092285,-0.925000011920929 -3.062999963760376,-2.2899999618530273 -1.5880000591278076,-2.499000072479248 C-1.5880000591278076,-2.499000072479248 0.8309999704360962,-2.8410000801086426 0.8309999704360962,-2.8410000801086426 C2.305999994277954,-3.049999952316284 3.6700000762939453,-2.0250000953674316 3.878999948501587,-0.550000011920929 C4.089000225067139,0.925000011920929 3.062999963760376,2.2899999618530273 1.5880000591278076,2.499000072479248z"></path></g></g></g></g></g><g transform="matrix(1,0,0,1,249.7989959716797,455.21600341796875)" opacity="1" style="display: block;"><g opacity="1" transform="matrix(1,0,0,1,0,0)"><path fill="rgb(67,79,218)" fill-opacity="1" d=" M196.00399780273438,44.784000396728516 C196.00399780273438,44.784000396728516 -196.00399780273438,44.784000396728516 -196.00399780273438,44.784000396728516 C-196.00399780273438,44.784000396728516 -196.00399780273438,-44.784000396728516 -196.00399780273438,-44.784000396728516 C-196.00399780273438,-44.784000396728516 196.00399780273438,-44.784000396728516 196.00399780273438,-44.784000396728516 C196.00399780273438,-44.784000396728516 196.00399780273438,44.784000396728516 196.00399780273438,44.784000396728516z"></path></g><g opacity="1" transform="matrix(1,0,0,1,0,-50)"><path fill="rgb(49,51,132)" fill-opacity="1" d=" M205.38499450683594,6.892000198364258 C205.38499450683594,6.892000198364258 -205.38499450683594,6.892000198364258 -205.38499450683594,6.892000198364258 C-205.38499450683594,6.892000198364258 -205.38499450683594,-6.892000198364258 -205.38499450683594,-6.892000198364258 C-205.38499450683594,-6.892000198364258 205.38499450683594,-6.892000198364258 205.38499450683594,-6.892000198364258 C205.38499450683594,-6.892000198364258 205.38499450683594,6.892000198364258 205.38499450683594,6.892000198364258z"></path></g></g><g transform="matrix(1,0,0,1,0,0)" opacity="1" style="display: block;"><g opacity="1" transform="matrix(1,0,0,1,0,0)"><g opacity="1" transform="matrix(1,0,0,1,112.54499816894531,347.7869873046875)"><path fill="rgb(74,96,222)" fill-opacity="1" d=" M1.9019999504089355,24.05299949645996 C7.414000034332275,8.390000343322754 9.050999641418457,-8.35200023651123 6.603000164031982,-24.05299949645996 C-3.6010000705718994,-10.519000053405762 -8.784000396728516,6.677999973297119 -7.521999835968018,22.81100082397461 C-7.521999835968018,22.81100082397461 1.9019999504089355,24.05299949645996 1.9019999504089355,24.05299949645996z"></path></g><g opacity="1" transform="matrix(1,0,0,1,98.37899780273438,343.4989929199219)"><path fill="rgb(67,79,218)" fill-opacity="1" d=" M8.875,32.952999114990234 C11.567999839782715,9.166999816894531 5.675000190734863,-14.699000358581543 -7.3979997634887695,-32.952999114990234 C-12.270999908447266,-11.843000411987305 -8.623000144958496,10.390000343322754 2.4779999256134033,27.22599983215332 C2.4779999256134033,27.22599983215332 8.875,32.952999114990234 8.875,32.952999114990234z"></path></g></g><g opacity="1" transform="matrix(1,0,0,1,107.09300231933594,377.9750061035156)"><path fill="rgb(209,231,255)" fill-opacity="1" d=" M15.432999610900879,-19.204999923706055 C15.432999610900879,-19.204999923706055 12.102999687194824,5.909999847412109 12.102999687194824,5.909999847412109 C12.102999687194824,5.909999847412109 10.333999633789062,19.216999053955078 10.333999633789062,19.216999053955078 C10.333999633789062,19.216999053955078 -10.333999633789062,19.216999053955078 -10.333999633789062,19.216999053955078 C-10.333999633789062,19.216999053955078 -14.35200023651123,-11.107999801635742 -14.35200023651123,-11.107999801635742 C-14.35200023651123,-11.107999801635742 -15.432999610900879,-19.216999053955078 -15.432999610900879,-19.216999053955078 C-15.432999610900879,-19.216999053955078 -7.236999988555908,-19.216999053955078 -7.236999988555908,-19.216999053955078 C-7.236999988555908,-19.216999053955078 15.432999610900879,-19.204999923706055 15.432999610900879,-19.204999923706055z"></path></g><g opacity="1" transform="matrix(1,0,0,1,111.19100189208984,371.3210144042969)"><path fill="rgb(167,209,255)" fill-opacity="1" d=" M11.335000038146973,-12.550999641418457 C11.335000038146973,-12.550999641418457 8.005000114440918,12.564000129699707 8.005000114440918,12.564000129699707 C8.005000114440918,12.564000129699707 -11.335000038146973,-12.564000129699707 -11.335000038146973,-12.564000129699707 C-11.335000038146973,-12.564000129699707 11.335000038146973,-12.550999641418457 11.335000038146973,-12.550999641418457z"></path></g></g><g transform="matrix(1,0,0,1,0,0)" opacity="1" style="display: block;"><g opacity="1" transform="matrix(1,0,0,1,399.9809875488281,369.01300048828125)"><path fill="rgb(49,51,132)" fill-opacity="1" d=" M29.06100082397461,-29.659000396728516 C29.06100082397461,-29.659000396728516 -17.44499969482422,-29.659000396728516 -17.44499969482422,-29.659000396728516 C-17.44499969482422,-29.659000396728516 -29.06100082397461,29.659000396728516 -29.06100082397461,29.659000396728516 C-29.06100082397461,29.659000396728516 17.44499969482422,29.659000396728516 17.44499969482422,29.659000396728516 C17.44499969482422,29.659000396728516 29.06100082397461,-29.659000396728516 29.06100082397461,-29.659000396728516z"></path></g><g opacity="1" transform="matrix(1,0,0,1,411.5979919433594,369.01300048828125)"><path fill="rgb(74,96,222)" fill-opacity="1" d=" M-29.06100082397461,-29.659000396728516 C-29.06100082397461,-29.659000396728516 17.44499969482422,-29.659000396728516 17.44499969482422,-29.659000396728516 C17.44499969482422,-29.659000396728516 29.06100082397461,29.659000396728516 29.06100082397461,29.659000396728516 C29.06100082397461,29.659000396728516 -17.44499969482422,29.659000396728516 -17.44499969482422,29.659000396728516 C-17.44499969482422,29.659000396728516 -29.06100082397461,-29.659000396728516 -29.06100082397461,-29.659000396728516z"></path></g><g opacity="1" transform="matrix(1,0,0,1,425.5610046386719,339.35400390625)"><path fill="rgb(209,231,255)" fill-opacity="1" d=" M0,1.7070000171661377 C0.9419999718666077,1.7050000429153442 1.7050000429153442,0.9430000185966492 1.7070000171661377,0 C1.7050000429153442,-0.9419999718666077 0.9419999718666077,-1.7050000429153442 0,-1.7070000171661377 C-0.9419999718666077,-1.7050000429153442 -1.7050000429153442,-0.9419999718666077 -1.7070000171661377,0 C-1.7070000171661377,0 -2.921999931335449,0 -2.921999931335449,0 C-2.921999931335449,-1.6139999628067017 -1.6139999628067017,-2.921999931335449 0,-2.921999931335449 C1.6139999628067017,-2.921999931335449 2.921999931335449,-1.6139999628067017 2.921999931335449,0 C2.921999931335449,1.6139999628067017 1.6139999628067017,2.921999931335449 0,2.921999931335449 C0,2.921999931335449 0,1.7070000171661377 0,1.7070000171661377 C0,1.7070000171661377 0,1.7070000171661377 0,1.7070000171661377z"></path></g><g opacity="1" transform="matrix(1,0,0,1,419.0669860839844,339.35400390625)"><path fill="rgb(209,231,255)" fill-opacity="1" d=" M0,1.7070000171661377 C0.9430000185966492,1.7050000429153442 1.7050000429153442,0.9430000185966492 1.7070000171661377,0 C1.7050000429153442,-0.9419999718666077 0.9430000185966492,-1.7050000429153442 0,-1.7070000171661377 C-0.9419999718666077,-1.7050000429153442 -1.7050000429153442,-0.9419999718666077 -1.7070000171661377,0 C-1.7070000171661377,0 -2.921999931335449,0 -2.921999931335449,0 C-2.921999931335449,-1.6139999628067017 -1.6139999628067017,-2.921999931335449 0,-2.921999931335449 C1.6139999628067017,-2.921999931335449 2.9210000038146973,-1.6139999628067017 2.921999931335449,0 C2.9210000038146973,1.6139999628067017 1.6139999628067017,2.921999931335449 0,2.921999931335449 C0,2.921999931335449 0,1.7070000171661377 0,1.7070000171661377 C0,1.7070000171661377 0,1.7070000171661377 0,1.7070000171661377z"></path></g><g opacity="1" transform="matrix(1,0,0,1,412.572998046875,339.35400390625)"><path fill="rgb(209,231,255)" fill-opacity="1" d=" M0,1.7070000171661377 C0.9419999718666077,1.7050000429153442 1.7050000429153442,0.9430000185966492 1.7070000171661377,0 C1.7050000429153442,-0.9419999718666077 0.9419999718666077,-1.7050000429153442 0,-1.7070000171661377 C-0.9419999718666077,-1.7050000429153442 -1.7050000429153442,-0.9419999718666077 -1.7070000171661377,0 C-1.7070000171661377,0 -2.921999931335449,0 -2.921999931335449,0 C-2.921999931335449,-1.6139999628067017 -1.6139999628067017,-2.921999931335449 0,-2.921999931335449 C1.6139999628067017,-2.921999931335449 2.921999931335449,-1.6139999628067017 2.921999931335449,0 C2.921999931335449,1.6139999628067017 1.6139999628067017,2.921999931335449 0,2.921999931335449 C0,2.921999931335449 0,1.7070000171661377 0,1.7070000171661377 C0,1.7070000171661377 0,1.7070000171661377 0,1.7070000171661377z"></path></g><g opacity="1" transform="matrix(1,0,0,1,406.0790100097656,339.35400390625)"><path fill="rgb(209,231,255)" fill-opacity="1" d=" M0,1.7070000171661377 C0.9419999718666077,1.7050000429153442 1.7050000429153442,0.9430000185966492 1.7070000171661377,0 C1.7050000429153442,-0.9419999718666077 0.9419999718666077,-1.7050000429153442 0,-1.7070000171661377 C-0.9430000185966492,-1.7050000429153442 -1.7050000429153442,-0.9419999718666077 -1.7070000171661377,0 C-1.7070000171661377,0 -2.921999931335449,0 -2.921999931335449,0 C-2.921999931335449,-1.6139999628067017 -1.6139999628067017,-2.921999931335449 0,-2.921999931335449 C1.6139999628067017,-2.921999931335449 2.921999931335449,-1.6139999628067017 2.921999931335449,0 C2.921999931335449,1.6139999628067017 1.6139999628067017,2.921999931335449 0,2.921999931335449 C0,2.921999931335449 0,1.7070000171661377 0,1.7070000171661377 C0,1.7070000171661377 0,1.7070000171661377 0,1.7070000171661377z"></path></g><g opacity="1" transform="matrix(1,0,0,1,399.5840148925781,339.35400390625)"><path fill="rgb(209,231,255)" fill-opacity="1" d=" M0,1.7070000171661377 C0.9419999718666077,1.7050000429153442 1.7050000429153442,0.9430000185966492 1.7070000171661377,0 C1.7050000429153442,-0.9419999718666077 0.9419999718666077,-1.7050000429153442 0,-1.7070000171661377 C-0.9419999718666077,-1.7050000429153442 -1.7050000429153442,-0.9419999718666077 -1.7070000171661377,0 C-1.7070000171661377,0 -2.921999931335449,0 -2.921999931335449,0 C-2.9210000038146973,-1.6139999628067017 -1.6139999628067017,-2.921999931335449 0,-2.921999931335449 C1.6139999628067017,-2.921999931335449 2.921999931335449,-1.6139999628067017 2.921999931335449,0 C2.921999931335449,1.6139999628067017 1.6139999628067017,2.921999931335449 0,2.921999931335449 C0,2.921999931335449 0,1.7070000171661377 0,1.7070000171661377 C0,1.7070000171661377 0,1.7070000171661377 0,1.7070000171661377z"></path></g><g opacity="1" transform="matrix(1,0,0,1,393.0899963378906,339.35400390625)"><path fill="rgb(209,231,255)" fill-opacity="1" d=" M0,1.7070000171661377 C0.9419999718666077,1.7050000429153442 1.7050000429153442,0.9430000185966492 1.7070000171661377,0 C1.7050000429153442,-0.9419999718666077 0.9419999718666077,-1.7050000429153442 0,-1.7070000171661377 C-0.9419999718666077,-1.7050000429153442 -1.7050000429153442,-0.9419999718666077 -1.7070000171661377,0 C-1.7070000171661377,0 -2.921999931335449,0 -2.921999931335449,0 C-2.9210000038146973,-1.6139999628067017 -1.6139999628067017,-2.921999931335449 0,-2.921999931335449 C1.6139999628067017,-2.921999931335449 2.921999931335449,-1.6139999628067017 2.921999931335449,0 C2.921999931335449,1.6139999628067017 1.6139999628067017,2.921999931335449 0,2.921999931335449 C0,2.921999931335449 0,1.7070000171661377 0,1.7070000171661377 C0,1.7070000171661377 0,1.7070000171661377 0,1.7070000171661377z"></path></g><g opacity="1" transform="matrix(1,0,0,1,386.59600830078125,339.35400390625)"><path fill="rgb(209,231,255)" fill-opacity="1" d=" M0,1.7070000171661377 C0.9419999718666077,1.7050000429153442 1.7050000429153442,0.9430000185966492 1.7070000171661377,0 C1.7050000429153442,-0.9419999718666077 0.9419999718666077,-1.7050000429153442 0,-1.7070000171661377 C-0.9419999718666077,-1.7050000429153442 -1.7050000429153442,-0.9419999718666077 -1.7070000171661377,0 C-1.7070000171661377,0 -2.921999931335449,0 -2.921999931335449,0 C-2.921999931335449,-1.6139999628067017 -1.6139999628067017,-2.921999931335449 0,-2.921999931335449 C1.6139999628067017,-2.921999931335449 2.921999931335449,-1.6139999628067017 2.921999931335449,0 C2.921999931335449,1.6139999628067017 1.6139999628067017,2.921999931335449 0,2.921999931335449 C0,2.921999931335449 0,1.7070000171661377 0,1.7070000171661377 C0,1.7070000171661377 0,1.7070000171661377 0,1.7070000171661377z"></path></g></g><g transform="matrix(1,0,0,1,0,-0.0009765625)" opacity="1" style="display: block;"><g opacity="1" transform="matrix(1,0,0,1,0,0)"><g opacity="1" transform="matrix(1,0,0,1,275.76300048828125,310.5459899902344)"><path fill="rgb(209,231,255)" fill-opacity="1" d=" M8.093000411987305,18.47599983215332 C8.093000411987305,18.47599983215332 -8.093000411987305,18.47599983215332 -8.093000411987305,18.47599983215332 C-9.906999588012695,18.47599983215332 -11.378000259399414,17.0049991607666 -11.378000259399414,15.190999984741211 C-11.378000259399414,15.190999984741211 -11.378000259399414,-15.192000389099121 -11.378000259399414,-15.192000389099121 C-11.378000259399414,-17.006000518798828 -9.906999588012695,-18.47599983215332 -8.093000411987305,-18.47599983215332 C-8.093000411987305,-18.47599983215332 8.093000411987305,-18.47599983215332 8.093000411987305,-18.47599983215332 C9.906999588012695,-18.47599983215332 11.378000259399414,-17.006000518798828 11.378000259399414,-15.192000389099121 C11.378000259399414,-15.192000389099121 11.378000259399414,15.190999984741211 11.378000259399414,15.190999984741211 C11.378000259399414,17.0049991607666 9.906999588012695,18.47599983215332 8.093000411987305,18.47599983215332z"></path></g><g opacity="1" transform="matrix(1,0,0,1,275.76300048828125,292.07000732421875)"><path fill="rgb(194,194,194)" fill-opacity="1" d=" M1.847000002861023,-6.197000026702881 C1.847000002861023,-6.197000026702881 -1.847000002861023,-6.197000026702881 -1.847000002861023,-6.197000026702881 C-1.847000002861023,-6.197000026702881 -1.847000002861023,6.197000026702881 -1.847000002861023,6.197000026702881 C-1.847000002861023,6.197000026702881 1.847000002861023,6.197000026702881 1.847000002861023,6.197000026702881 C1.847000002861023,6.197000026702881 1.847000002861023,-6.197000026702881 1.847000002861023,-6.197000026702881z"></path></g></g><g opacity="1" transform="matrix(1,0,0,1,0,0)"><g opacity="1" transform="matrix(1,0,0,1,250,349.5190124511719)"><path fill="rgb(255,255,255)" fill-opacity="1" d=" M71.93399810791016,43.08700180053711 C71.93399810791016,43.08700180053711 -71.93399810791016,43.08700180053711 -71.93399810791016,43.08700180053711 C-71.93399810791016,43.08700180053711 -77.63500213623047,-34.652000427246094 -77.63500213623047,-34.652000427246094 C-77.96900177001953,-39.207000732421875 -74.36399841308594,-43.08700180053711 -69.7959976196289,-43.08700180053711 C-69.7959976196289,-43.08700180053711 69.7959976196289,-43.08700180053711 69.7959976196289,-43.08700180053711 C74.36399841308594,-43.08700180053711 77.96900177001953,-39.207000732421875 77.63500213623047,-34.652000427246094 C77.63500213623047,-34.652000427246094 71.93399810791016,43.08700180053711 71.93399810791016,43.08700180053711z"></path></g><g opacity="1" transform="matrix(1,0,0,1,249.9080047607422,395.3559875488281)"><path fill="rgb(207,236,255)" fill-opacity="1" d=" M67.0009994506836,2.75 C67.0009994506836,2.75 -67.0009994506836,2.75 -67.0009994506836,2.75 C-69.67500305175781,2.75 -71.84200286865234,0.5830000042915344 -71.84200286865234,-2.0910000801086426 C-71.84200286865234,-2.0910000801086426 -71.84200286865234,-2.75 -71.84200286865234,-2.75 C-71.84200286865234,-2.75 71.84200286865234,-2.75 71.84200286865234,-2.75 C71.84200286865234,-2.75 71.84200286865234,-2.0910000801086426 71.84200286865234,-2.0910000801086426 C71.84200286865234,0.5830000042915344 69.67500305175781,2.75 67.0009994506836,2.75z"></path></g><g opacity="1" transform="matrix(1,0,0,1,250,349.5190124511719)"><path fill="rgb(209,231,255)" fill-opacity="1" d=" M9.133999824523926,0 C9.133999824523926,5.045000076293945 5.044000148773193,9.133999824523926 0,9.133999824523926 C-5.045000076293945,9.133999824523926 -9.133999824523926,5.045000076293945 -9.133999824523926,0 C-9.133999824523926,-5.044000148773193 -5.045000076293945,-9.133999824523926 0,-9.133999824523926 C5.044000148773193,-9.133999824523926 9.133999824523926,-5.044000148773193 9.133999824523926,0z"></path></g></g></g><g transform="matrix(0.9999899864196777,0,0,0.9999899864196777,0.003570556640625,0.001800537109375)" opacity="1" style="display: block;"><g opacity="1" transform="matrix(1,0,0,1,356.0660095214844,179.26800537109375)"><path fill="rgb(169,184,255)" fill-opacity="1" d=" M31.323999404907227,0 C31.323999404907227,17.299999237060547 17.299999237060547,31.323999404907227 0,31.323999404907227 C-17.299999237060547,31.323999404907227 -31.323999404907227,17.299999237060547 -31.323999404907227,0 C-31.323999404907227,-17.299999237060547 -17.299999237060547,-31.323999404907227 0,-31.323999404907227 C17.299999237060547,-31.323999404907227 31.323999404907227,-17.299999237060547 31.323999404907227,0z"></path></g><g opacity="1" transform="matrix(1,0,0,1,356.0660095214844,178.4929962158203)"><path fill="rgb(49,51,132)" fill-opacity="1" d=" M-11.284000396728516,18.334999084472656 C-6.671999931335449,17.854999542236328 0.9240000247955322,14.697999954223633 7.810999870300293,7.810999870300293 C14.697999954223633,0.9240000247955322 17.854999542236328,-6.671999931335449 18.334999084472656,-11.284000396728516 C18.643999099731445,-14.251999855041504 16.770000457763672,-16.62700080871582 15.395000457763672,-17.94300079345703 C14.718000411987305,-18.590999603271484 13.628000259399414,-18.488000869750977 13.102999687194824,-17.711999893188477 C13.102999687194824,-17.711999893188477 6.557000160217285,-8.029999732971191 6.557000160217285,-8.029999732971191 C6.077000141143799,-7.318999767303467 6.289000034332275,-6.35099983215332 7.0229997634887695,-5.9070000648498535 C7.0229997634887695,-5.9070000648498535 8.38599967956543,-5.083000183105469 8.38599967956543,-5.083000183105469 C9.612000465393066,-4.3420000076293945 9.744999885559082,-2.878999948501587 9.295000076293945,-1.5190000534057617 C8.545999526977539,0.7429999709129333 0.7440000176429749,8.545999526977539 -1.5190000534057617,9.295000076293945 C-2.878999948501587,9.744999885559082 -4.3420000076293945,9.612000465393066 -5.083000183105469,8.38599967956543 C-5.083000183105469,8.38599967956543 -5.9070000648498535,7.0229997634887695 -5.9070000648498535,7.0229997634887695 C-6.35099983215332,6.289000034332275 -7.318999767303467,6.077000141143799 -8.029999732971191,6.557000160217285 C-8.029999732971191,6.557000160217285 -17.711999893188477,13.102999687194824 -17.711999893188477,13.102999687194824 C-18.488000869750977,13.628000259399414 -18.590999603271484,14.718000411987305 -17.94300079345703,15.395000457763672 C-16.62700080871582,16.770000457763672 -14.251999855041504,18.643999099731445 -11.284000396728516,18.334999084472656z"></path></g></g><g transform="matrix(0.9999899864196777,0,0,0.9999899864196777,0.003204345703125,0.00090789794921875)" opacity="1" style="display: block;"><g opacity="1" transform="matrix(1,0,0,1,320.43701171875,90.39299774169922)"><g opacity="1" transform="matrix(1,0,0,1,0,0)"><path fill="rgb(169,184,255)" fill-opacity="1" d=" M31.323999404907227,0 C31.323999404907227,17.299999237060547 17.299999237060547,31.323999404907227 0,31.323999404907227 C-17.299999237060547,31.323999404907227 -31.323999404907227,17.299999237060547 -31.323999404907227,0 C-31.323999404907227,-17.299999237060547 -17.299999237060547,-31.323999404907227 0,-31.323999404907227 C17.299999237060547,-31.323999404907227 31.323999404907227,-17.299999237060547 31.323999404907227,0z"></path></g></g><g opacity="1" transform="matrix(1,0,0,1,0,0)"><g opacity="1" transform="matrix(1,0,0,1,321.18701171875,83.38700103759766)"><path fill="rgb(49,51,132)" fill-opacity="1" d=" M0.004999999888241291,5.954999923706055 C0.004999999888241291,5.954999923706055 -17.05500030517578,-5.954999923706055 -17.05500030517578,-5.954999923706055 C-17.05500030517578,-5.954999923706055 17.05500030517578,-5.954999923706055 17.05500030517578,-5.954999923706055 C17.05500030517578,-5.954999923706055 0.004999999888241291,5.954999923706055 0.004999999888241291,5.954999923706055z"></path></g><g opacity="1" transform="matrix(1,0,0,1,321.18701171875,91.16699981689453)"><path fill="rgb(49,51,132)" fill-opacity="1" d=" M18.795000076293945,-12.505000114440918 C18.795000076293945,-12.505000114440918 18.795000076293945,12.515000343322754 18.795000076293945,12.515000343322754 C18.795000076293945,12.515000343322754 -18.795000076293945,12.515000343322754 -18.795000076293945,12.515000343322754 C-18.795000076293945,12.515000343322754 -18.795000076293945,-12.515000343322754 -18.795000076293945,-12.515000343322754 C-18.795000076293945,-12.515000343322754 0.004999999888241291,0.6050000190734863 0.004999999888241291,0.6050000190734863 C0.004999999888241291,0.6050000190734863 18.795000076293945,-12.505000114440918 18.795000076293945,-12.505000114440918z"></path></g></g></g><g transform="matrix(1,0,0,1,0,0)" opacity="1" style="display: block;"><g opacity="1" transform="matrix(1,0,0,1,179.56300354003906,90.39299774169922)"><path fill="rgb(169,184,255)" fill-opacity="1" d=" M31.323999404907227,0 C31.323999404907227,17.299999237060547 17.299999237060547,31.323999404907227 0,31.323999404907227 C-17.299999237060547,31.323999404907227 -31.323999404907227,17.299999237060547 -31.323999404907227,0 C-31.323999404907227,-17.299999237060547 -17.299999237060547,-31.323999404907227 0,-31.323999404907227 C17.299999237060547,-31.323999404907227 31.323999404907227,-17.299999237060547 31.323999404907227,0z"></path></g><g opacity="1" transform="matrix(1,0,0,1,179.56300354003906,92.35399627685547)"><path fill="rgb(49,51,132)" fill-opacity="1" d=" M21.233999252319336,-1.9609999656677246 C21.233999252319336,-11.383999824523926 11.72700023651123,-19.02400016784668 0,-19.02400016784668 C-11.72700023651123,-19.02400016784668 -21.233999252319336,-11.383999824523926 -21.233999252319336,-1.9609999656677246 C-21.233999252319336,7.461999893188477 -11.72700023651123,15.10099983215332 0,15.10099983215332 C1.875,15.10099983215332 3.684999942779541,14.88700008392334 5.416999816894531,14.520000457763672 C5.416999816894531,14.520000457763672 12.942000389099121,19.02400016784668 12.942000389099121,19.02400016784668 C12.942000389099121,19.02400016784668 11.541000366210938,12.348999977111816 11.541000366210938,12.348999977111816 C17.3700008392334,9.307000160217285 21.233999252319336,4.039999961853027 21.233999252319336,-1.9609999656677246z"></path></g><g opacity="1" transform="matrix(1,0,0,1,0,0)"><g opacity="1" transform="matrix(1,0,0,1,168.31500244140625,90.39299774169922)"><path fill="rgb(167,209,255)" fill-opacity="1" d=" M2.861999988555908,0 C2.861999988555908,1.5800000429153442 1.5809999704360962,2.861999988555908 0,2.861999988555908 C-1.5800000429153442,2.861999988555908 -2.861999988555908,1.5800000429153442 -2.861999988555908,0 C-2.861999988555908,-1.5809999704360962 -1.5800000429153442,-2.861999988555908 0,-2.861999988555908 C1.5809999704360962,-2.861999988555908 2.861999988555908,-1.5809999704360962 2.861999988555908,0z"></path></g><g opacity="1" transform="matrix(1,0,0,1,179.56300354003906,90.39299774169922)"><path fill="rgb(167,209,255)" fill-opacity="1" d=" M2.861999988555908,0 C2.861999988555908,1.5800000429153442 1.5809999704360962,2.861999988555908 0,2.861999988555908 C-1.5800000429153442,2.861999988555908 -2.861999988555908,1.5800000429153442 -2.861999988555908,0 C-2.861999988555908,-1.5809999704360962 -1.5800000429153442,-2.861999988555908 0,-2.861999988555908 C1.5809999704360962,-2.861999988555908 2.861999988555908,-1.5809999704360962 2.861999988555908,0z"></path></g><g opacity="1" transform="matrix(1,0,0,1,190.80999755859375,90.39299774169922)"><path fill="rgb(167,209,255)" fill-opacity="1" d=" M2.861999988555908,0 C2.861999988555908,1.5800000429153442 1.5809999704360962,2.861999988555908 0,2.861999988555908 C-1.5809999704360962,2.861999988555908 -2.861999988555908,1.5800000429153442 -2.861999988555908,0 C-2.861999988555908,-1.5809999704360962 -1.5809999704360962,-2.861999988555908 0,-2.861999988555908 C1.5809999704360962,-2.861999988555908 2.861999988555908,-1.5809999704360962 2.861999988555908,0z"></path></g></g></g><g transform="matrix(0.9999099969863892,0,0,0.9999099969863892,0.0125885009765625,0.0161590576171875)" opacity="1" style="display: block;"><g opacity="1" transform="matrix(1,0,0,1,139.90199279785156,179.49600219726562)"><g opacity="1" transform="matrix(1,0,0,1,0,0)"><path fill="rgb(169,184,255)" fill-opacity="1" d=" M33.297000885009766,0 C33.297000885009766,18.388999938964844 18.388999938964844,33.297000885009766 0,33.297000885009766 C-18.388999938964844,33.297000885009766 -33.297000885009766,18.388999938964844 -33.297000885009766,0 C-33.297000885009766,-18.388999938964844 -18.388999938964844,-33.297000885009766 0,-33.297000885009766 C18.388999938964844,-33.297000885009766 33.297000885009766,-18.388999938964844 33.297000885009766,0z"></path></g></g><g opacity="1" transform="matrix(1,0,0,1,0,0)"><g opacity="1" transform="matrix(1,0,0,1,139.90199279785156,179.49600219726562)"><path fill="rgb(49,51,132)" fill-opacity="1" d=" M14.633000373840332,-23.148000717163086 C14.633000373840332,-23.148000717163086 16.138999938964844,-25.503000259399414 16.138999938964844,-25.503000259399414 C16.138999938964844,-25.503000259399414 13.819000244140625,-25.823999404907227 13.819000244140625,-25.823999404907227 C13.819000244140625,-25.823999404907227 4.281000137329102,-27.142000198364258 4.281000137329102,-27.142000198364258 C4.281000137329102,-27.142000198364258 10.734000205993652,-17.052000045776367 10.734000205993652,-17.052000045776367 C10.734000205993652,-17.052000045776367 13.015999794006348,-20.6200008392334 13.015999794006348,-20.6200008392334 C19.847000122070312,-16.29800033569336 24.38800048828125,-8.680999755859375 24.38599967956543,0 C24.385000228881836,6.73799991607666 21.658000946044922,12.824999809265137 17.243000030517578,17.243000030517578 C12.824999809265137,21.658000946044922 6.73799991607666,24.385000228881836 0,24.38599967956543 C-6.738999843597412,24.385000228881836 -12.824999809265137,21.658000946044922 -17.243000030517578,17.243000030517578 C-21.658000946044922,12.824999809265137 -24.385000228881836,6.73799991607666 -24.38599967956543,0 C-24.385000228881836,-6.738999843597412 -21.658000946044922,-12.826000213623047 -17.243000030517578,-17.243999481201172 C-12.824999809265137,-21.659000396728516 -6.738999843597412,-24.385000228881836 0,-24.38599967956543 C0,-24.38599967956543 0,-27.38599967956543 0,-27.38599967956543 C-15.125,-27.385000228881836 -27.385000228881836,-15.12600040435791 -27.38599967956543,0 C-27.385000228881836,15.125 -15.125,27.385000228881836 0,27.38599967956543 C15.125,27.385000228881836 27.385000228881836,15.125 27.38599967956543,0 C27.384000778198242,-9.741999626159668 22.29599952697754,-18.292999267578125 14.633000373840332,-23.148000717163086z"></path></g></g></g><g fill="rgb(0,0,0)" font-size="27.3625640869141" font-family="Times New Roman" font-style="normal" font-weight="400" aria-label="24" style="display: block;" transform="matrix(1,0,0,1,125.86499786376953,187.52700805664062)" opacity="1"><path stroke-linecap="butt" stroke-linejoin="round" stroke-miterlimit="4" d=" M12.05,-3.49 C11.82,-3.09 11.55,-2.78 11.24,-2.56 C10.92,-2.34 10.57,-2.2 10.19,-2.12 C9.8,-2.05 9.13,-2.02 8.16,-2.02 C8.16,-2.02 3.43,-2.02 3.43,-2.02 C3.99,-2.52 5.37,-3.98 7.59,-6.4 C9.07,-8.01 10.14,-9.54 10.8,-10.98 C11.22,-11.9 11.44,-12.82 11.44,-13.73 C11.44,-15.02 10.94,-16.13 9.96,-17.07 C8.98,-18.02 7.75,-18.49 6.28,-18.49 C4.9,-18.49 3.75,-18.05 2.83,-17.17 C1.9,-16.29 1.33,-15.02 1.11,-13.37 C1.11,-13.37 1.6,-13.37 1.6,-13.37 C1.94,-14.38 2.47,-15.14 3.17,-15.67 C3.88,-16.19 4.68,-16.45 5.57,-16.45 C6.55,-16.45 7.39,-16.08 8.1,-15.34 C8.8,-14.6 9.15,-13.65 9.15,-12.51 C9.15,-11 8.51,-9.34 7.23,-7.52 C5.95,-5.7 3.73,-3.36 0.59,-0.49 C0.59,-0.49 0.59,0 0.59,0 C0.59,0 11.28,0 11.28,0 C11.28,0 12.55,-3.49 12.55,-3.49 C12.55,-3.49 12.05,-3.49 12.05,-3.49z M23.98,-6.68 C23.98,-6.68 23.98,-18.49 23.98,-18.49 C23.98,-18.49 22.51,-18.49 22.51,-18.49 C22.51,-18.49 14.11,-6.49 14.11,-6.49 C14.11,-6.49 14.11,-4.78 14.11,-4.78 C14.11,-4.78 21.78,-4.78 21.78,-4.78 C21.78,-4.78 21.78,0 21.78,0 C21.78,0 23.98,0 23.98,0 C23.98,0 23.98,-4.78 23.98,-4.78 C23.98,-4.78 26.41,-4.78 26.41,-4.78 C26.41,-4.78 26.41,-6.68 26.41,-6.68 C26.41,-6.68 23.98,-6.68 23.98,-6.68z M15.42,-6.68 C15.42,-6.68 21.78,-15.67 21.78,-15.67 C21.78,-15.67 21.78,-6.68 21.78,-6.68 C21.78,-6.68 15.42,-6.68 15.42,-6.68z" style="display: inherit;"></path></g></g></svg>